<?xml version="1.0" standalone="no"?>
<!DOCTYPE svg PUBLIC "-//W3C//DTD SVG 20010904//EN"
 "http://www.w3.org/TR/2001/REC-SVG-20010904/DTD/svg10.dtd">
<svg version="1.0" xmlns="http://www.w3.org/2000/svg"
 width="300.000000pt" height="46.000000pt" viewBox="0 0 300.000000 46.000000"
 preserveAspectRatio="xMidYMid meet">
<metadata>
Created by potrace 1.10, written by Peter Selinger 2001-2011
</metadata>
<g transform="translate(0.000000,46.000000) scale(0.100000,-0.100000)"
fill="#000000" stroke="none">
<path d="M110 247 l0 -113 27 2 c24 1 26 4 27 45 1 44 1 44 34 41 28 -3 32 0
32 20 0 20 -5 23 -32 23 -29 0 -33 3 -33 25 0 23 3 25 38 22 34 -3 37 -1 37
22 0 25 -2 26 -65 26 l-65 0 0 -113z m37 -9 c-3 -8 -6 -5 -6 6 -1 11 2 17 5
13 3 -3 4 -12 1 -19z"/>
<path d="M482 250 l2 -110 28 0 c26 0 28 3 28 40 0 51 14 51 39 1 17 -32 26
-39 56 -43 19 -2 35 -3 35 -1 0 1 -14 22 -31 47 l-32 44 22 28 c27 35 27 49
-4 79 -20 21 -34 25 -84 25 l-60 0 1 -110z m103 60 c11 -18 -6 -50 -26 -50
-14 0 -19 7 -19 30 0 23 5 30 19 30 11 0 23 -5 26 -10z"/>
<path d="M745 348 c-13 -43 -59 -185 -63 -196 -3 -8 6 -12 28 -12 23 0 33 5
37 20 8 28 82 29 90 1 3 -12 16 -21 34 -23 19 -3 28 -1 26 6 -2 6 -19 57 -38
114 l-33 102 -38 0 c-22 0 -40 -5 -43 -12z m59 -55 c3 -16 8 -38 12 -50 6 -21
3 -23 -26 -23 -29 0 -32 2 -26 23 4 12 9 34 12 50 4 15 10 27 14 27 4 0 10
-12 14 -27z m-59 -82 c3 -5 1 -12 -5 -16 -5 -3 -10 1 -10 9 0 18 6 21 15 7z
m105 -7 c0 -8 -4 -12 -10 -9 -5 3 -10 10 -10 16 0 5 5 9 10 9 6 0 10 -7 10
-16z"/>
<path d="M930 250 c0 -103 1 -110 20 -110 11 0 23 -1 27 -2 3 -2 5 35 4 82 -1
95 6 92 34 -13 17 -67 18 -68 48 -65 30 3 32 6 47 77 22 102 36 101 32 -2 l-4
-84 29 4 28 5 0 109 0 109 -41 0 -41 0 -23 -80 c-13 -45 -26 -77 -30 -73 -4 4
-15 41 -26 81 l-18 72 -43 0 -43 0 0 -110z m230 70 c0 -5 -2 -10 -4 -10 -3 0
-8 5 -11 10 -3 6 -1 10 4 10 6 0 11 -4 11 -10z"/>
<path d="M1367 349 c-43 -25 -61 -114 -32 -169 18 -34 70 -54 119 -44 31 5 36
10 36 35 l0 28 -35 -15 c-32 -13 -36 -13 -55 6 -39 39 -15 134 33 127 12 -1
28 -6 35 -10 16 -11 35 35 18 45 -16 11 -98 9 -119 -3z"/>
<path d="M2663 306 c63 -152 70 -176 57 -191 -7 -9 -19 -14 -27 -11 -9 4 -13
-3 -13 -19 0 -21 5 -25 28 -25 47 1 61 20 102 140 12 36 28 75 36 88 14 21 13
22 -20 22 -33 0 -34 -1 -47 -60 -7 -33 -16 -60 -19 -60 -3 0 -12 26 -20 57
-14 53 -18 58 -48 64 -23 5 -32 3 -29 -5z"/>
<path d="M295 285 c-45 -44 -26 -124 33 -146 14 -6 43 -7 64 -4 33 6 38 10 38
33 0 20 -3 23 -12 14 -18 -18 -75 -15 -82 4 -3 9 -6 18 -6 20 0 2 25 4 55 4
54 0 55 0 55 29 0 64 -97 95 -145 46z m83 -17 c19 -19 14 -28 -18 -28 -32 0
-37 9 -18 28 15 15 21 15 36 0z m-63 -37 c3 -5 1 -12 -5 -16 -5 -3 -10 1 -10
9 0 18 6 21 15 7z"/>
<path d="M1565 298 c-30 -17 -35 -28 -35 -79 0 -58 25 -84 82 -84 31 0 45 6
64 28 66 77 -23 185 -111 135z m75 -68 c0 -41 -10 -60 -30 -60 -32 0 -42 67
-14 95 21 21 44 3 44 -35z"/>
<path d="M1740 222 l0 -88 27 2 c26 1 27 3 24 50 -2 55 16 91 43 81 12 -5 16
-20 16 -69 0 -61 1 -63 25 -63 23 0 25 3 25 48 0 53 13 87 35 87 16 0 28 -46
23 -97 -3 -34 -1 -37 25 -37 15 0 27 3 27 7 0 4 0 39 0 77 0 66 -2 71 -26 82
-19 9 -33 9 -57 0 -21 -8 -35 -8 -41 -2 -13 13 -52 13 -79 -1 -16 -9 -22 -9
-25 0 -2 6 -12 11 -23 11 -17 0 -19 -8 -19 -88z"/>
<path d="M2060 185 l0 -125 31 0 32 0 -7 46 c-5 41 -4 45 12 39 39 -17 51 -16
71 4 28 28 30 120 3 144 -22 20 -53 22 -71 5 -11 -10 -14 -10 -18 0 -3 6 -16
12 -29 12 l-24 0 0 -125z m108 44 c4 -47 -21 -72 -43 -43 -17 23 -18 39 -4 65
17 32 44 19 47 -22z m-71 -61 c-3 -8 -6 -5 -6 6 -1 11 2 17 5 13 3 -3 4 -12 1
-19z"/>
<path d="M2288 303 c-14 -3 -16 -8 -8 -23 9 -16 15 -18 36 -10 29 11 44 6 44
-16 0 -8 -10 -14 -24 -14 -62 0 -93 -30 -76 -75 12 -32 53 -42 85 -21 15 10
26 12 30 6 3 -6 15 -10 26 -10 17 0 19 7 19 69 0 61 -3 72 -22 85 -21 15 -72
19 -110 9z m75 -89 c10 -10 -12 -44 -28 -44 -21 0 -28 19 -15 35 13 16 32 19
43 9z"/>
<path d="M2470 222 c0 -85 1 -89 23 -88 20 1 23 7 27 60 4 42 10 62 23 70 26
16 38 -9 35 -72 -3 -55 -6 -52 48 -52 4 0 7 33 6 72 -1 57 -5 75 -18 85 -22
16 -49 17 -77 2 -16 -9 -22 -9 -25 0 -2 6 -12 11 -23 11 -17 0 -19 -8 -19 -88z"/>
<path d="M2883 183 c-20 -8 -15 -41 7 -48 25 -8 40 1 40 25 0 14 -23 34 -33
29 -1 0 -8 -3 -14 -6z"/>
</g>
</svg>
