<?xml version="1.0" standalone="no"?>
<!DOCTYPE svg PUBLIC "-//W3C//DTD SVG 20010904//EN"
 "http://www.w3.org/TR/2001/REC-SVG-20010904/DTD/svg10.dtd">
<svg version="1.0" xmlns="http://www.w3.org/2000/svg"
 width="1500.000000pt" height="1500.000000pt" viewBox="0 0 1500.000000 1500.000000"
 preserveAspectRatio="xMidYMid meet">
<metadata>
Created by potrace 1.10, written by Peter Selinger 2001-2011
</metadata>
<g transform="translate(0.000000,1500.000000) scale(0.100000,-0.100000)"
fill="#000000" stroke="none">
<path d="M1285 13628 c-3 -7 -4 -2436 -3 -5398 l3 -5385 5398 -3 5397 -2 0
5400 0 5400 -5395 0 c-4307 0 -5397 -3 -5400 -12z m9809 -958 l26 -10 -2
-4427 -3 -4428 -4430 0 -4430 0 -3 4425 c-2 4152 -1 4426 15 4438 21 15 8786
18 8827 2z"/>
<path d="M4816 10121 c-4 -5 -6 -895 -6 -1977 0 -1567 2 -1969 12 -1976 16
-10 1023 -6 1033 4 4 4 7 332 6 728 -1 536 1 726 10 736 10 12 106 14 590 14
l579 0 10 26 c6 16 9 181 8 427 l-3 402 -588 3 -588 2 -8 23 c-14 37 -14 706
0 723 10 12 109 14 640 14 354 0 630 4 633 9 4 7 10 774 7 839 -1 9 -241 12
-1165 12 -692 0 -1167 -4 -1170 -9z"/>
<path d="M7987 7110 c-213 -57 -326 -180 -363 -398 -24 -145 4 -291 76 -400
107 -160 341 -244 587 -212 164 22 282 81 357 179 83 108 101 169 101 341 -1
148 -17 210 -76 300 -66 98 -151 155 -281 190 -98 26 -303 26 -401 0z"/>
</g>
</svg>
